<svg xmlns="http://www.w3.org/2000/svg" viewBox="0 0 267.99 322.7"><defs><style>.cls-1,.cls-8{fill:#636262;}.cls-2{font-size:24.79px;font-family:RobotoSlab-Bold, Roboto Slab;}.cls-2,.cls-3{fill:#ed785d;}.cls-2,.cls-8{font-weight:700;}.cls-4,.cls-5{fill:#ccc;}.cls-5{opacity:0.2;}.cls-6{fill:#40515e;}.cls-7{fill:#333;}.cls-8{font-size:18.19px;font-family:Helvetica-Bold, Helvetica;}</style></defs><title>Asset 1</title><g id="Layer_2" data-name="Layer 2"><g id="Layer_1-2" data-name="Layer 1"><g id="_Group_" data-name="&lt;Group&gt;"><path id="_Compound_Path_" data-name="&lt;Compound Path&gt;" class="cls-1" d="M170.32,212.92l19.14,33.28a9.88,9.88,0,0,0,8.55,5h13.29a.55.55,0,0,0,.55-.55V245.2a.55.55,0,0,0-.55-.55l-13.29,0a3.89,3.89,0,0,1-1.81-.43,3.28,3.28,0,0,1-1.32-1.27l-19.2-33.22a3.59,3.59,0,0,1,0-3.58l19.22-33.28a3.71,3.71,0,0,1,3.13-1.89l38.41-.1a3.7,3.7,0,0,1,3.13,1.9l19.19,33.32a3.66,3.66,0,0,1,0,3.63l-1.7,3a.55.55,0,0,0,.47.82h6.05a.55.55,0,0,0,.47-.27l.18-.31a10,10,0,0,0,0-9.93l-19.19-33.21a9.91,9.91,0,0,0-8.61-4.91h0l-38.41,0a9.93,9.93,0,0,0-8.6,4.93L170.27,203A10.27,10.27,0,0,0,170.32,212.92Z"/></g><g id="_Group_2" data-name="&lt;Group&gt;"><path id="_Compound_Path_2" data-name="&lt;Compound Path&gt;" class="cls-1" d="M84.86,67.56,104,100.83a9.93,9.93,0,0,0,8.6,4.93l38.41,0h0a9.91,9.91,0,0,0,8.61-4.91L178.85,67.6a10,10,0,0,0,0-9.93l-.18-.31a.55.55,0,0,0-.47-.27h-6.05a.55.55,0,0,0-.47.82l1.7,3a3.66,3.66,0,0,1,0,3.63L154.18,97.81a3.7,3.7,0,0,1-3.13,1.9l-38.41-.1a3.71,3.71,0,0,1-3.13-1.89L90.28,64.44a3.59,3.59,0,0,1,0-3.58l19.2-33.22a3.28,3.28,0,0,1,1.32-1.27,3.89,3.89,0,0,1,1.81-.43l13.29,0a.55.55,0,0,0,.55-.55V19.93a.55.55,0,0,0-.55-.55H112.61a9.88,9.88,0,0,0-8.55,5L84.91,57.64A10.27,10.27,0,0,0,84.86,67.56Z"/></g><g id="_Group_3" data-name="&lt;Group&gt;"><path id="_Compound_Path_3" data-name="&lt;Compound Path&gt;" class="cls-1" d="M168.54,116.54l19.2,33.33a10.24,10.24,0,0,0,3.64,3.69,9.72,9.72,0,0,0,5,1.39l22.83-.07a.55.55,0,0,0,.54-.55v-5.4a.55.55,0,0,0-.55-.55H196.35a3.61,3.61,0,0,1-3.13-1.8L174,113.33a3.61,3.61,0,0,1,0-3.61l19.22-33.29a3.61,3.61,0,0,1,3.13-1.8h38.42a3.62,3.62,0,0,1,3.13,1.8l17.72,30.72a.55.55,0,0,0,.47.27h6.5a.27.27,0,0,0,.23-.4L243.39,73.14a10.08,10.08,0,0,0-8.61-5.08h0l-38.41.13a10.07,10.07,0,0,0-8.6,5.08l-19.22,33.31A10,10,0,0,0,168.54,116.54Z"/></g><g id="_Group_4" data-name="&lt;Group&gt;"><path id="_Compound_Path_4" data-name="&lt;Compound Path&gt;" class="cls-1" d="M95.44,203.44l-19.2-33.33a10.24,10.24,0,0,0-3.64-3.69,9.72,9.72,0,0,0-5-1.39l-22.83.07a.55.55,0,0,0-.54.55v5.4a.55.55,0,0,0,.55.55H67.64a3.61,3.61,0,0,1,3.13,1.8L90,206.65a3.61,3.61,0,0,1,0,3.61L70.74,243.56a3.61,3.61,0,0,1-3.13,1.8H29.2a3.62,3.62,0,0,1-3.13-1.8L8.34,212.85a.55.55,0,0,0-.47-.27H1.37a.27.27,0,0,0-.23.4l19.45,33.85a10.08,10.08,0,0,0,8.61,5.08h0l38.41-.13a10.07,10.07,0,0,0,8.6-5.08L95.44,213.4A10,10,0,0,0,95.44,203.44Z"/></g><text class="cls-2" transform="translate(99.56 150.03)">CORE<tspan x="-9.5" y="29.74">SKILLS</tspan></text><g id="_Group_5" data-name="&lt;Group&gt;"><path id="_Compound_Path_5" data-name="&lt;Compound Path&gt;" class="cls-1" d="M95.44,106.47,76.24,73.14a10.24,10.24,0,0,0-3.64-3.69,9.72,9.72,0,0,0-5-1.39l-22.83.07a.55.55,0,0,0-.54.55v5.4a.55.55,0,0,0,.55.55H67.64a3.61,3.61,0,0,1,3.13,1.8L90,109.68a3.61,3.61,0,0,1,0,3.61L70.74,146.58a3.61,3.61,0,0,1-3.13,1.8H29.2a3.62,3.62,0,0,1-3.13-1.8L8.34,115.88a.55.55,0,0,0-.47-.27H1.37a.27.27,0,0,0-.23.4l19.45,33.85a10.08,10.08,0,0,0,8.61,5.08h0l38.41-.13a10.07,10.07,0,0,0,8.6-5.08l19.22-33.31A10,10,0,0,0,95.44,106.47Z"/></g><g id="_Group_6" data-name="&lt;Group&gt;"><path id="_Compound_Path_6" data-name="&lt;Compound Path&gt;" class="cls-1" d="M179.86,251.66l-19.2-33.26h0a9.86,9.86,0,0,0-8.63-5H113.59a10,10,0,0,0-8.61,5L85.77,251.65a9.93,9.93,0,0,0,0,9.93l6.43,11.13a.55.55,0,0,0,.47.27h6a.55.55,0,0,0,.47-.82l-7.89-13.69a3.57,3.57,0,0,1,0-3.59l19.22-33.2a3.53,3.53,0,0,1,3.13-1.7H152a3.54,3.54,0,0,1,3.13,1.71l19.22,33.17a3.69,3.69,0,0,1,0,3.65l-19.22,33.32a3.74,3.74,0,0,1-3.13,1.93h-8.85a.55.55,0,0,0-.55.55v4.92a.55.55,0,0,0,.55.55H152a9.94,9.94,0,0,0,8.61-4.93l19.22-33.23A10,10,0,0,0,179.86,251.66Z"/></g><path id="_Path_" data-name="&lt;Path&gt;" class="cls-1" d="M132.29,12.32h39.57a.55.55,0,0,1,.54.59l-3.32,39.79a.55.55,0,0,1-.39.48l-16.47,4.94a.55.55,0,0,1-.31,0l-16.47-4.94a.55.55,0,0,1-.39-.48l-3.32-39.79A.55.55,0,0,1,132.29,12.32Z"/><path id="_Path_2" data-name="&lt;Path&gt;" class="cls-1" d="M169,16.19,166.26,50a.55.55,0,0,1-.38.48L152.24,54.7a.55.55,0,0,1-.32,0l-13.64-4.25a.55.55,0,0,1-.38-.48l-2.75-33.77a.55.55,0,0,1,.54-.59h32.78A.55.55,0,0,1,169,16.19Z"/><path id="_Path_3" data-name="&lt;Path&gt;" class="cls-3" d="M163.79,25.65H145.71a.55.55,0,0,0-.54.61l.48,3.94a.55.55,0,0,0,.54.48h17.09a.55.55,0,0,1,.54.59L162.63,46a.55.55,0,0,1-.38.48l-10,3.11a.55.55,0,0,1-.32,0l-10-3a.55.55,0,0,1-.39-.48l-.61-7.42a.55.55,0,0,1,.54-.59h4a.55.55,0,0,1,.55.51l.25,3.45a.55.55,0,0,0,.36.48l5.34,1.88a.55.55,0,0,0,.37,0l5.34-1.91A.55.55,0,0,0,158,42l.4-5.72a.55.55,0,0,0-.55-.58h-16.7a.55.55,0,0,1-.54-.5l-1.14-14a.55.55,0,0,1,.54-.59h24.09a.55.55,0,0,1,.54.59l-.33,3.94A.55.55,0,0,1,163.79,25.65Z"/><path id="_Path_4" data-name="&lt;Path&gt;" class="cls-4" d="M152.45,20.62"/><path id="_Path_5" data-name="&lt;Path&gt;" class="cls-5" d="M169,16.19,166.18,50a.55.55,0,0,1-.38.48l-13.88,4.3V15.6h16.55A.55.55,0,0,1,169,16.19Z"/><path id="_Path_6" data-name="&lt;Path&gt;" class="cls-1" d="M.59,68.06H39a.55.55,0,0,1,.54.59l-3.22,38.6a.55.55,0,0,1-.39.48l-16,4.79a.55.55,0,0,1-.31,0l-16-4.8a.55.55,0,0,1-.39-.48L0,68.65A.55.55,0,0,1,.59,68.06Z"/><path id="_Path_7" data-name="&lt;Path&gt;" class="cls-1" d="M3.89,71.34H35.67a.55.55,0,0,1,.54.59l-2.67,32.74a.55.55,0,0,1-.38.48l-13.22,4.08a.55.55,0,0,1-.32,0L6.4,105.13a.55.55,0,0,1-.38-.48L3.34,71.93A.55.55,0,0,1,3.89,71.34Z"/><path id="_Path_8" data-name="&lt;Path&gt;" class="cls-6" d="M31.95,121"/><path id="_Path_9" data-name="&lt;Path&gt;" class="cls-3" d="M31.38,76.26H8a.55.55,0,0,0-.54.59l.3,3.83a.55.55,0,0,0,.54.5h8.91a.55.55,0,0,1,.2,1.05L8.6,85.76a.55.55,0,0,0-.34.55l.34,4.2a.55.55,0,0,0,.54.5H25.33a.55.55,0,0,1,.55.59L25.49,97a.55.55,0,0,1-.37.48L20,99.26a.55.55,0,0,1-.36,0l-5.17-1.78a.55.55,0,0,1-.37-.48l-.24-3.3a.55.55,0,0,0-.55-.51H9.42a.55.55,0,0,0-.54.59l.59,7.14a.55.55,0,0,0,.39.48l9.7,2.94a.55.55,0,0,0,.32,0l9.71-3.07a.55.55,0,0,0,.38-.48l1.19-14.67a.55.55,0,0,0-.54-.59H23.25A.55.55,0,0,1,23,84.5L31.28,81a.55.55,0,0,0,.33-.46l.31-3.72A.55.55,0,0,0,31.38,76.26Z"/><path id="_Path_10" data-name="&lt;Path&gt;" class="cls-5" d="M36.21,71.93l-2.72,32.74a.55.55,0,0,1-.38.48l-13.43,4.14V71.34h16A.55.55,0,0,1,36.21,71.93Z"/><path id="_Path_11" data-name="&lt;Path&gt;" class="cls-1" d="M226.78,115.6h37.83a.55.55,0,0,1,.54.59L262,154.28a.55.55,0,0,1-.39.48l-15.9,4.79-15.9-4.8a.55.55,0,0,1-.39-.48l-3.17-38.08A.55.55,0,0,1,226.78,115.6Z"/><path id="_Path_12" data-name="&lt;Path&gt;" class="cls-1" d="M230,118.88h31.33a.55.55,0,0,1,.54.59l-2.63,32.32a.55.55,0,0,1-.38.48l-13,4a.55.55,0,0,1-.32,0l-13-4.07a.55.55,0,0,1-.38-.48l-2.63-32.29A.55.55,0,0,1,230,118.88Z"/><path id="_Path_13" data-name="&lt;Path&gt;" class="cls-3" d="M243.09,151l-8.84-2.69a.55.55,0,0,1-.39-.48l-.22-2.68a.55.55,0,0,1,.7-.57l4.76,1.46a.55.55,0,0,0,.71-.52l0-21a.55.55,0,0,1,.55-.55h2.87a.55.55,0,0,1,.55.55l.05,26A.55.55,0,0,1,243.09,151Z"/><path id="_Path_14" data-name="&lt;Path&gt;" class="cls-3" d="M259.42,124.52l-.29,3.67a.55.55,0,0,1-.54.5h-7.2a.55.55,0,0,0-.55.55v5.65a.55.55,0,0,0,.61.54l7-.87h.1l-1.09,13.31a.55.55,0,0,1-.39.48L248.29,151a.55.55,0,0,1-.71-.52v-3.24a.55.55,0,0,1,.4-.52l6-1.68a.55.55,0,0,0,.4-.53v-3a.55.55,0,0,0-.64-.54l-5.51,1a.55.55,0,0,1-.64-.54l0-17a.55.55,0,0,1,.55-.55h10.7A.55.55,0,0,1,259.42,124.52Z"/><path id="_Path_15" data-name="&lt;Path&gt;" class="cls-5" d="M261.9,118.93l-2.66,32.56a.55.55,0,0,1-.37.47l-13.23,4.35v-38h15.73A.55.55,0,0,1,261.9,118.93Z"/><path id="_Rectangle_" data-name="&lt;Rectangle&gt;" class="cls-3" d="M0,168.61H38.35a1,1,0,0,1,1,1V207a1,1,0,0,1-1,1H0a0,0,0,0,1,0,0V168.61A0,0,0,0,1,0,168.61Z"/><rect id="_Rectangle_2" data-name="&lt;Rectangle&gt;" class="cls-1" x="1.64" y="170.25" width="36.07" height="36.07" rx="1" ry="1"/><rect id="_Rectangle_3" data-name="&lt;Rectangle&gt;" class="cls-3" x="217.49" y="217.79" width="39.35" height="39.35" rx="1" ry="1"/><path id="_Path_16" data-name="&lt;Path&gt;" class="cls-7" d="M206.56,199.21"/><ellipse id="_Path_17" data-name="&lt;Path&gt;" class="cls-3" cx="106.89" cy="294.12" rx="30.82" ry="16.21"/><ellipse id="_Path_18" data-name="&lt;Path&gt;" class="cls-1" cx="106.89" cy="294.12" rx="29.62" ry="15.01"/><g id="_Group_7" data-name="&lt;Group&gt;"><path id="_Compound_Path_7" data-name="&lt;Compound Path&gt;" class="cls-3" d="M94,289.77c1.34,0,2.24.16,2.69.66a2.85,2.85,0,0,1,.32,2.51,4.75,4.75,0,0,1-1.41,2.86,5.16,5.16,0,0,1-3.19,1H90.22l1.32-7Zm-8.62,13h3.54l.84-4h3a11.2,11.2,0,0,0,3.3-.32,6.13,6.13,0,0,0,2.36-1.36,6.91,6.91,0,0,0,2.22-3.94,5.34,5.34,0,0,0-.85-4.63,5.7,5.7,0,0,0-4.48-1.74H88.51Z"/><path id="_Compound_Path_8" data-name="&lt;Compound Path&gt;" class="cls-3" d="M103.24,282.77h3.51l-.84,4H109a6,6,0,0,1,4.07,1.16c.75.69,1,1.77.67,3.31l-1.47,7.53h-3.57l1.4-7.09c.16-.82.1-1.27-.18-1.57s-.86-.34-1.76-.34H105.4l-1.81,9h-3.51Z"/><path id="_Compound_Path_9" data-name="&lt;Compound Path&gt;" class="cls-3" d="M121.6,289.77c1.34,0,2.24.16,2.69.66a2.85,2.85,0,0,1,.32,2.51,4.75,4.75,0,0,1-1.41,2.86,5.16,5.16,0,0,1-3.19,1h-2.15l1.32-7Zm-8.62,13h3.54l.84-4h3a11.2,11.2,0,0,0,3.3-.32,6.13,6.13,0,0,0,2.36-1.36,6.91,6.91,0,0,0,2.22-3.94,5.34,5.34,0,0,0-.85-4.63,5.7,5.7,0,0,0-4.48-1.74h-6.81Z"/></g><path id="_Path_19" data-name="&lt;Path&gt;" class="cls-1" d="M9.13,321,.32,305.73a1.86,1.86,0,0,1,0-1.86L9.13,288.6a1.86,1.86,0,0,1,1.61-.93H28.37a1.86,1.86,0,0,1,1.61.93l8.81,15.26a1.86,1.86,0,0,1,0,1.86L30,321a1.86,1.86,0,0,1-1.61.93H10.74A1.86,1.86,0,0,1,9.13,321Z"/><g id="_3QczJr.tif" data-name="3QczJr.tif"><g id="_Group_8" data-name="&lt;Group&gt;"><path class="cls-3" d="M20.63,288.62c.69.1,1.39.16,2.08.3a16,16,0,0,1,9.51,5.82A16.13,16.13,0,0,1,32,315.1a15.62,15.62,0,0,1-10.26,5.72,15.7,15.7,0,0,1-12.87-3.88A15.86,15.86,0,0,1,3.5,307c-.05-.36-.09-.73-.13-1.09q0-1.1,0-2.21c0-.38.09-.77.14-1.15A16.27,16.27,0,0,1,16,289c.79-.18,1.59-.26,2.39-.37ZM34.9,304.8a15.36,15.36,0,1,0-15.58,15.36A15.34,15.34,0,0,0,34.9,304.8Z"/><path class="cls-3" d="M16.14,313.3A.51.51,0,0,1,16,313l-4.79-14.23c-.16-.48-.15-.49.37-.53l1-.08c.4,0,.59-.25.57-.6s-.23-.49-.62-.46c-1.12.09-2.24.13-3.36.18-.28,0-.56,0-.84,0-.09,0-.21,0-.26-.08s0-.18.1-.26a13.82,13.82,0,0,1,3.48-3.5A13.46,13.46,0,0,1,18.21,291a13.73,13.73,0,0,1,10.57,3.45l.07.07a.37.37,0,0,1,0,.09l-.56.09a2.42,2.42,0,0,0-1.86,2.69,6.09,6.09,0,0,0,1,2.37,9.43,9.43,0,0,1,1.37,3.16,7,7,0,0,1-.24,3.36c-.66,2.24-1.34,4.47-2,6.71,0,.07,0,.15-.11.2s-.12-.17-.15-.26l-4.78-14.2c-.13-.39-.12-.41.29-.45l1-.08c.42,0,.67-.25.66-.57s-.29-.54-.73-.5q-1.61.14-3.23.17c-1.2,0-2.4-.06-3.59-.16h-.36a.5.5,0,0,0-.55.51.49.49,0,0,0,.5.55c.33,0,.67.07,1,.08a.57.57,0,0,1,.59.43c.61,1.72,1.24,3.44,1.88,5.15a1.18,1.18,0,0,1,0,.84q-1.39,4.13-2.76,8.27C16.24,313,16.19,313.15,16.14,313.3Z"/><path class="cls-3" d="M19.5,318.68a13.61,13.61,0,0,1-3.55-.46c-.27-.07-.35-.17-.25-.45q1.86-5.36,3.7-10.73c.09-.27.18-.53.28-.8,0-.06,0-.17.12-.17s.1.1.12.17l.83,2.25c1.1,3,2.19,6,3.3,9,.12.32.05.43-.26.52A13.84,13.84,0,0,1,19.5,318.68Z"/><path class="cls-3" d="M6.93,299.17c.12.31.24.61.34.91l6.13,16.81c0,.1.16.23,0,.32s-.22,0-.32-.1a13.73,13.73,0,0,1-7.35-10.47,13.37,13.37,0,0,1,1-7.24,1.22,1.22,0,0,1,.09-.17S6.88,299.21,6.93,299.17Z"/><path class="cls-3" d="M26.5,316.71c.16-.48.32-1,.48-1.43q1.78-5.16,3.57-10.32a23.57,23.57,0,0,0,1-3.12,12,12,0,0,0,.17-3.45c0-.05,0-.1,0-.17.95.7,2,5.43,1.72,7.64a14,14,0,0,1-6.8,10.92Z"/></g></g><path id="_Path_20" data-name="&lt;Path&gt;" class="cls-1" d="M9.57,33.67.75,18.41a1.86,1.86,0,0,1,0-1.86L9.57,1.28A1.86,1.86,0,0,1,11.18.35H28.81a1.86,1.86,0,0,1,1.61.93l8.81,15.26a1.86,1.86,0,0,1,0,1.86L30.42,33.67a1.86,1.86,0,0,1-1.61.93H11.18A1.86,1.86,0,0,1,9.57,33.67Z"/><rect id="_Rectangle_4" data-name="&lt;Rectangle&gt;" class="cls-3" x="8.3" y="5.69" width="24.03" height="23.58" rx="6.11" ry="6.11"/><text class="cls-8" transform="translate(13.59 24.07)">B</text><path id="_Path_21" data-name="&lt;Path&gt;" class="cls-1" d="M224,33.32l-8.81-15.26a1.86,1.86,0,0,1,0-1.86L224,.93A1.86,1.86,0,0,1,225.57,0H243.2a1.86,1.86,0,0,1,1.61.93l8.81,15.26a1.86,1.86,0,0,1,0,1.86l-8.81,15.26a1.86,1.86,0,0,1-1.61.93H225.57A1.86,1.86,0,0,1,224,33.32Z"/><g id="cqvY4N.tif"><g id="_Group_9" data-name="&lt;Group&gt;"><path class="cls-3" d="M228.68,9.52a5.48,5.48,0,0,1,1.86.6,4,4,0,0,1,2,3.35,6.67,6.67,0,0,1-.41,2.42c-.26.85-.56,1.68-.88,2.5-.12.3-.08.36.24.36h.66c.2,0,.27.11.23.29q-.23.89-.47,1.78c-.07.24-.27.27-.48.27h-2.73c-1.09,0-2.17,0-3.26,0a4.39,4.39,0,0,1-2.55-.75,3.1,3.1,0,0,1-1.32-2.25,8.7,8.7,0,0,1,2.11-6.92,5.05,5.05,0,0,1,3.22-1.61l.18,0Zm-1.62,9.13h0c.39,0,.79,0,1.18,0a.39.39,0,0,0,.44-.34c.3-1.09.62-2.17.91-3.26a4,4,0,0,0,.13-1.56A1.7,1.7,0,0,0,228.54,12a3.27,3.27,0,0,0-1.12-.1,2.57,2.57,0,0,0-2.08,1.1,5.69,5.69,0,0,0-.9,2.28,4.59,4.59,0,0,0-.07,2.1,1.52,1.52,0,0,0,1.5,1.23C226.27,18.67,226.67,18.65,227.06,18.65Z"/><path class="cls-3" d="M200.78,15.3a5.47,5.47,0,0,1,.59-1.62c.27-.43.61-.8.92-1.21.07.06,0,.11,0,.15a5.21,5.21,0,0,0,.4,4.81,6.58,6.58,0,0,0,4.84,3.35A5.35,5.35,0,0,0,212,19.7a6.71,6.71,0,0,0,.5-.51l.06,0c-.09.17-.16.34-.26.5a5.5,5.5,0,0,1-4.42,2.64,6.74,6.74,0,0,1-7-5.57.75.75,0,0,0,0-.12Z"/><path class="cls-3" d="M247.71,17.41h-2.55c-.32,0-.39.07-.39.39a.86.86,0,0,0,.69.92,3,3,0,0,0,.86.1h3.52c.35,0,.41.07.34.41-.11.53-.22,1.06-.33,1.59a.38.38,0,0,1-.42.34c-1.38,0-2.77,0-4.15,0a4.39,4.39,0,0,1-1.44-.28,2.32,2.32,0,0,1-1.65-2.26,9.27,9.27,0,0,1,1-4.51,4.09,4.09,0,0,1,3.29-2.21,7.44,7.44,0,0,1,2.48,0,2.43,2.43,0,0,1,2.14,2.52,9.81,9.81,0,0,1-.4,2.69c-.06.24-.24.27-.45.27Zm-.87-2h1.36c.17,0,.29,0,.32-.24a.93.93,0,0,0-.67-1.09,2.76,2.76,0,0,0-1.2,0,1.7,1.7,0,0,0-1.34,1c-.13.28-.08.36.22.36Z"/><path class="cls-3" d="M237.88,21h-2.1a2.94,2.94,0,0,1-1.1-.22,2.22,2.22,0,0,1-1.38-2,9.73,9.73,0,0,1,.35-3l.71-3.36c.1-.46.14-.5.61-.5h1.58c.31,0,.38.08.32.38l-1,4.94a3,3,0,0,0,0,.78.71.71,0,0,0,.59.71,8.62,8.62,0,0,0,1.86.06c.19,0,.24-.17.27-.33q.52-2.41,1-4.82c.09-.44.18-.87.28-1.31s.16-.4.5-.4h1.52c.44,0,.48.05.39.47l-1.38,6.49c-.13.61-.27,1.21-.39,1.82a.37.37,0,0,1-.42.33h-2.23Z"/><path class="cls-3" d="M260,21h-1.08c-.21,0-.29-.09-.23-.3.14-.53.26-1.05.4-1.58a1.19,1.19,0,0,0,0-.65l-1-3.33c-.11-.38-.05-.46.34-.46h1.89c.39,0,.46.07.55.45l.18.77c0,.07,0,.18.1.19s.12-.09.16-.15l2.22-3.25c.4-.59.81-1.18,1.21-1.78a.71.71,0,0,1,.66-.35h2.28c.1,0,.23,0,.28.08s-.05.19-.11.27l-5.68,7.55a2,2,0,0,0-.37.77c-.11.48-.25.95-.36,1.42A.38.38,0,0,1,261,21Z"/><path class="cls-3" d="M257.82,14.26h-2.36a.38.38,0,0,0-.45.36c-.41,2-.83,4-1.24,6-.08.37-.13.42-.5.42h-1.68c-.36,0-.39-.05-.32-.41q.9-4.18,1.79-8.36a.36.36,0,0,1,.37-.33h4.73a5.72,5.72,0,0,1,1.1.08,1.36,1.36,0,0,1,1.15,1.08c.06.26.13.51.19.76s0,.38-.3.38Z"/><path class="cls-3" d="M215.44,24.72h-1c-.26,0-.33-.09-.27-.35.13-.55.26-1.09.38-1.63a.39.39,0,0,1,.46-.36H215a1.26,1.26,0,0,0,1.47-1,11.51,11.51,0,0,0,.44-1.81c.33-1.48.66-3,1-4.46.08-.34.16-.4.51-.4h1.79c.34,0,.41.08.34.41-.49,2.25-.93,4.5-1.48,6.74a5.31,5.31,0,0,1-.76,1.77,2.4,2.4,0,0,1-2,1.08h-.87Z"/><path class="cls-3" d="M212.86,16.13a3.6,3.6,0,0,1-1.12,1.57,4.13,4.13,0,0,1-3.25.88,4.65,4.65,0,0,1-4-3.15,3.46,3.46,0,0,1,.48-3.5c.11-.15.22-.31.33-.46.07,0,0,.08,0,.11a3.9,3.9,0,0,0,.67,4,4.69,4.69,0,0,0,3,1.84,3.65,3.65,0,0,0,3.68-1.26Z"/><path class="cls-3" d="M219.47,14.16h-1c-.25,0-.32-.09-.26-.33.12-.54.24-1.08.36-1.61a.34.34,0,0,1,.37-.3h2c.22,0,.3.1.25.32q-.18.79-.35,1.59a.37.37,0,0,1-.42.33Z"/><path class="cls-3" d="M212.41,14a2.21,2.21,0,0,1-1.94,1.27,3.13,3.13,0,0,1-3-1.93,2.3,2.3,0,0,1,.47-2.5,2.73,2.73,0,0,0,1.38,3.29A2.51,2.51,0,0,0,212.41,14Z"/></g></g><path id="_Path_22" data-name="&lt;Path&gt;" class="cls-1" d="M238,321.77l-8.82-15.27a1.86,1.86,0,0,1,0-1.86L238,289.37a1.86,1.86,0,0,1,1.61-.93h17.64a1.86,1.86,0,0,1,1.61.93l8.82,15.27a1.86,1.86,0,0,1,0,1.86l-8.82,15.27a1.86,1.86,0,0,1-1.61.93H239.58A1.86,1.86,0,0,1,238,321.77Z"/><g id="_Group_10" data-name="&lt;Group&gt;"><path id="_Compound_Path_10" data-name="&lt;Compound Path&gt;" class="cls-3" d="M236.21,299.19h2.24a.37.37,0,0,1,.37.37v8.25a4.88,4.88,0,0,0,.34,2.11,2.85,2.85,0,0,0,4.62,0,4.89,4.89,0,0,0,.34-2.11v-8.25a.37.37,0,0,1,.37-.37h2.24a.37.37,0,0,1,.37.37v8.26a7.24,7.24,0,0,1-.69,3.49q-1.29,2.29-4.94,2.29t-4.95-2.29a7.24,7.24,0,0,1-.69-3.49v-8.26A.37.37,0,0,1,236.21,299.19Z"/><path id="_Compound_Path_11" data-name="&lt;Compound Path&gt;" class="cls-3" d="M252,313.24h-2.52a.37.37,0,0,1-.31-.57l4-6.39a.37.37,0,0,0,0-.4l-3.82-6.12a.37.37,0,0,1,.32-.57h2.61a.37.37,0,0,1,.33.19l2.08,3.79a.37.37,0,0,0,.65,0l2.14-3.8a.37.37,0,0,1,.32-.19h2.5a.37.37,0,0,1,.31.57l-3.81,6a.37.37,0,0,0,0,.4l4.08,6.5a.37.37,0,0,1-.32.57h-2.67a.37.37,0,0,1-.33-.19l-2.25-4a.37.37,0,0,0-.65,0l-2.38,4A.37.37,0,0,1,252,313.24Z"/></g><text class="cls-2" transform="translate(5.28 196.02)">Ps</text><rect id="_Rectangle_5" data-name="&lt;Rectangle&gt;" class="cls-1" x="219.13" y="219.43" width="36.07" height="36.07" rx="1" ry="1"/><text class="cls-2" transform="translate(223.74 245.02)">Ai</text></g></g></svg>