<svg xmlns="http://www.w3.org/2000/svg" viewBox="0 0 47.27 45"><defs><style>.cls-1{fill:#f2f2f2;}</style></defs><title>Asset 5</title><g id="Layer_2" data-name="Layer 2"><g id="Layer_1-2" data-name="Layer 1"><path id="_Path_" data-name="&lt;Path&gt;" class="cls-1" d="M24.65.16l0,32.11a.16.16,0,0,0,.24.15l12.38-6.09a.16.16,0,0,0,.08-.22L25,.09A.16.16,0,0,0,24.65.16Z"/><path id="_Path_2" data-name="&lt;Path&gt;" class="cls-1" d="M47.24,44.84l0-32.11a.16.16,0,0,0-.24-.15L34.66,18.66a.16.16,0,0,0-.08.22l12.35,26A.16.16,0,0,0,47.24,44.84Z"/><path id="_Path_3" data-name="&lt;Path&gt;" class="cls-1" d="M22.62.16l0,32.11a.16.16,0,0,1-.24.15L10,26.34a.16.16,0,0,1-.08-.22L22.31.09A.16.16,0,0,1,22.62.16Z"/><path id="_Path_4" data-name="&lt;Path&gt;" class="cls-1" d="M0,44.84,0,12.72a.16.16,0,0,1,.24-.15l12.38,6.09a.16.16,0,0,1,.08.22L.34,44.91A.16.16,0,0,1,0,44.84Z"/></g></g></svg>