<svg xmlns="http://www.w3.org/2000/svg" viewBox="0 0 144.93 144.93"><defs><style>.cls-1{fill:#636262;}.cls-2{fill:#333;}.cls-3{fill:#ed785d;}</style></defs><title>Asset 4</title><g id="Layer_2" data-name="Layer 2"><g id="Layer_1-2" data-name="Layer 1"><g id="_Group_" data-name="&lt;Group&gt;"><rect id="_Rectangle_" data-name="&lt;Rectangle&gt;" class="cls-1" x="61.29" y="-8.22" width="36.62" height="146.36" transform="translate(69.25 -37.25) rotate(45)"/><polygon id="_Path_" data-name="&lt;Path&gt;" class="cls-1" points="35.9 134.56 0.55 144.03 10.02 108.68 35.9 134.56"/><polygon id="_Path_2" data-name="&lt;Path&gt;" class="cls-2" points="0.7 144.18 22.96 121.62 36.05 134.71 0.7 144.18"/><rect id="_Rectangle_2" data-name="&lt;Rectangle&gt;" class="cls-2" x="76.91" y="-1.74" width="18.31" height="146.36" transform="translate(75.72 -39.94) rotate(45)"/><polygon id="_Path_3" data-name="&lt;Path&gt;" class="cls-2" points="110.88 76.83 93.42 94.29 97.78 98.66 106.52 89.93 114.37 97.78 101.28 110.88 105.64 115.25 118.74 102.15 126.6 110.01 110.01 126.6 102.26 118.85 97.72 114.31 89.76 106.35 85.56 102.15 76.83 110.88 110.88 144.93 144.93 110.88 110.88 76.83"/><polygon id="_Path_4" data-name="&lt;Path&gt;" class="cls-2" points="68.1 34.05 50.64 51.51 46.27 47.15 54.13 39.29 45.4 30.56 33.18 42.78 29.68 39.29 41.91 27.07 34.05 19.21 18.34 34.92 25.71 42.3 30.26 46.85 38.21 54.8 42.78 59.37 34.05 68.1 0 34.05 34.05 0 68.1 34.05"/></g><rect class="cls-3" x="28.9" y="32.45" width="17.29" height="4.94" transform="translate(-13.7 36.78) rotate(-45)"/><rect class="cls-3" x="100.75" y="103.43" width="18.52" height="6.17" transform="translate(-43.1 108.99) rotate(-45)"/></g></g></svg>