<svg xmlns="http://www.w3.org/2000/svg" viewBox="0 0 171 141.18"><defs><style>.cls-1{fill:#333;}.cls-2{fill:#ed785d;}.cls-3{fill:#636262;}</style></defs><title>Asset 2</title><g id="Layer_2" data-name="Layer 2"><g id="Layer_1-2" data-name="Layer 1"><g id="_Group_" data-name="&lt;Group&gt;"><path id="_Compound_Path_" data-name="&lt;Compound Path&gt;" class="cls-1" d="M167.19,3.37A12.5,12.5,0,0,0,158.49,0H12A11.8,11.8,0,0,0,0,11.62v104a13.77,13.77,0,0,0,3.55,9.14C5.68,126.89,8.72,129,12,129H84c-1.5-2-2.74-1.82-3.71-2.16-8.6-3-11.11-8.84-9.61-13.84H14V15H156V65.27a32.47,32.47,0,0,1,5.83,6.67,73.33,73.33,0,0,1,9.17,18V11.62A11.85,11.85,0,0,0,167.19,3.37Z"/><path id="_Path_" data-name="&lt;Path&gt;" class="cls-2" d="M84.56,51.9A13.29,13.29,0,1,0,64.08,66.51,13.3,13.3,0,0,1,84.56,51.9Z"/><path id="_Path_2" data-name="&lt;Path&gt;" class="cls-1" d="M140.47,65.69a28.79,28.79,0,0,0-5.08.59l3.56,5c2.15,3-2.39,6.24-4.54,3.23L131.24,70a4.75,4.75,0,0,0-4.19-2c-2.42,0-5.29,1-8,1.66l4.32,6.05c2.13,3-2.39,6.24-4.54,3.23l-3.74-5.25a4.7,4.7,0,0,0-4.12-2c-2.52,0-5.53,1.19-8.33,1.9l4.56,6.4c2.15,3-2.41,6.23-4.54,3.23L84.13,57.41c-5.74-8.06-18.34.49-12.4,8.84L99.09,104.6a39.81,39.81,0,0,0-11.46-2.07c-10.4,0-14.4,11.43-1.3,15.83a145.24,145.24,0,0,1,45.35,22.82l39.22-28C160.74,98.94,163.53,89,153.43,74.78,148.33,67.64,144.85,65.69,140.47,65.69Z"/><path id="_Path_3" data-name="&lt;Path&gt;" class="cls-3" d="M171,11.62V89.93a73.33,73.33,0,0,0-9.17-18A32.47,32.47,0,0,0,156,65.27V14L167.12,3.27A12.14,12.14,0,0,1,171,11.62Z"/><path id="_Path_4" data-name="&lt;Path&gt;" class="cls-3" d="M84,129H12c-3.26,0-6.22-2.23-8.35-4.38L14.34,113H70.68c-1.5,5,1,10.88,9.61,13.84C81.26,127.18,82.5,127,84,129Z"/><polygon id="_Path_5" data-name="&lt;Path&gt;" class="cls-3" points="0 28.16 14 13.99 14 49.43 0 63.61 0 28.16"/><polygon id="_Path_6" data-name="&lt;Path&gt;" class="cls-3" points="63.97 0 49.79 15 14.34 15 28.52 0 63.97 0"/><polygon id="_Path_7" data-name="&lt;Path&gt;" class="cls-3" points="0 70.7 14 56.52 14 70.7 0 84.88 0 70.7"/><polygon id="_Path_8" data-name="&lt;Path&gt;" class="cls-3" points="85.24 0 71.06 15 56.88 15 71.06 0 85.24 0"/></g></g></g></svg>